
<?xml version="1.0" encoding="utf-8"?>
<!-- Generator: Adobe Illustrator 27.3.1, SVG Export Plug-In . SVG Version: 6.00 Build 0)  -->
<svg version="1.1" id="Layer_1" xmlns="http://www.w3.org/2000/svg" xmlns:xlink="http://www.w3.org/1999/xlink" x="0px" y="0px"
	 viewBox="0 0 721.62 134.04" style="enable-background:new 0 0 721.62 134.04;" xml:space="preserve">
<style type="text/css">
	.st0{fill:#0075FF;}
</style>
<path class="st0" d="M64.25,33.6v97.33H34.64V33.6H0V8.31h98.88V33.6H64.25z M152.52,68.06c-1.27-0.35-2.51-0.58-3.72-0.69
	c-1.21-0.11-2.4-0.17-3.55-0.17c-3.81,0-7.01,0.69-9.61,2.07c-2.6,1.38-4.68,3.05-6.23,5.01c-1.56,1.96-2.68,4.09-3.38,6.39
	c-0.69,2.3-1.04,4.32-1.04,6.04v44.21h-28.4V44.78h27.36v12.47h0.35c2.19-4.42,5.31-8.02,9.35-10.81c4.04-2.79,8.72-4.19,14.03-4.19
	c1.15,0,2.28,0.06,3.38,0.17c1.1,0.12,1.99,0.29,2.68,0.52L152.52,68.06z M162.58,56.46c5.08-4.85,11-8.49,17.75-10.91
	c6.75-2.42,13.65-3.64,20.69-3.64c7.27,0,13.42,0.9,18.44,2.68c5.02,1.79,9.09,4.56,12.21,8.31c3.12,3.75,5.4,8.49,6.84,14.2
	c1.44,5.71,2.17,12.5,2.17,20.35v43.47H214.7v-9.18h-0.52c-2.19,3.58-5.51,6.35-9.96,8.31c-4.45,1.96-9.27,2.94-14.46,2.94
	c-3.46,0-7.04-0.46-10.74-1.39c-3.7-0.92-7.07-2.42-10.13-4.5c-3.06-2.08-5.57-4.85-7.53-8.31c-1.96-3.46-2.94-7.73-2.94-12.81
	c0-6.23,1.7-11.26,5.11-15.07c3.4-3.81,7.79-6.75,13.16-8.83c5.37-2.08,11.34-3.46,17.92-4.16c6.58-0.69,12.99-1.04,19.22-1.04
	v-1.39c0-4.27-1.5-7.42-4.5-9.44c-3-2.02-6.7-3.03-11.08-3.03c-4.04,0-7.94,0.87-11.69,2.6c-3.75,1.73-6.96,3.81-9.61,6.23
	L162.58,56.46z M214.7,93.34h-3.64c-3.12,0-6.26,0.15-9.44,0.43c-3.18,0.29-6,0.84-8.49,1.65c-2.48,0.81-4.53,1.99-6.15,3.55
	c-1.62,1.56-2.42,3.61-2.42,6.15c0,1.62,0.37,3,1.13,4.16c0.75,1.16,1.7,2.08,2.86,2.77c1.15,0.69,2.48,1.19,3.98,1.47
	c1.5,0.29,2.94,0.43,4.33,0.43c5.77,0,10.19-1.59,13.25-4.76c3.06-3.17,4.59-7.47,4.59-12.9V93.34z M309.52,130.92h-30.65
	l-33.94-86.24h31.35l18.18,55.94h0.52l18.18-55.94h30.31L309.52,130.92z M434.36,88.84c0,1.16,0,2.31,0,3.46
	c0,1.16-0.06,2.25-0.17,3.29h-62.52c0.23,2.42,0.95,4.62,2.16,6.58c1.21,1.96,2.77,3.67,4.68,5.11c1.91,1.44,4.04,2.57,6.41,3.38
	c2.37,0.81,4.82,1.21,7.36,1.21c4.5,0,8.31-0.84,11.43-2.51c3.12-1.67,5.66-3.84,7.62-6.49l19.74,12.47
	c-4.04,5.89-9.38,10.42-16.02,13.59c-6.64,3.17-14.35,4.76-23.12,4.76c-6.47,0-12.58-1.01-18.36-3.03
	c-5.77-2.02-10.82-4.96-15.15-8.83c-4.33-3.87-7.74-8.63-10.22-14.29c-2.48-5.66-3.72-12.12-3.72-19.4c0-7.04,1.21-13.42,3.64-19.14
	s5.71-10.56,9.87-14.55c4.16-3.98,9.06-7.07,14.72-9.27c5.66-2.19,11.78-3.29,18.36-3.29c6.35,0,12.18,1.07,17.49,3.2
	c5.31,2.14,9.87,5.23,13.68,9.26c3.81,4.04,6.78,8.95,8.92,14.72C433.29,74.87,434.36,81.45,434.36,88.84z M408.21,77.93
	c0-4.5-1.42-8.37-4.24-11.6c-2.83-3.23-7.07-4.85-12.73-4.85c-2.77,0-5.31,0.43-7.62,1.3c-2.31,0.87-4.33,2.05-6.06,3.55
	c-1.73,1.5-3.12,3.26-4.16,5.28c-1.04,2.02-1.62,4.13-1.73,6.32H408.21z M449.7,130.92V0h28.92v130.92H449.7z M588.95,131.1
	c-8.03,1.96-16.77,2.94-26.24,2.94c-9.81,0-18.85-1.56-27.1-4.68c-8.26-3.12-15.36-7.5-21.3-13.16
	c-5.95-5.66-10.59-12.44-13.94-20.35c-3.35-7.91-5.02-16.71-5.02-26.41c0-9.81,1.7-18.7,5.11-26.67c3.4-7.97,8.11-14.75,14.11-20.35
	c6-5.6,13.05-9.9,21.13-12.9c8.08-3,16.8-4.5,26.15-4.5c9.7,0,18.7,1.47,27.02,4.42s15.07,6.9,20.26,11.86l-18.7,21.3
	c-2.89-3.35-6.7-6.09-11.43-8.23c-4.74-2.13-10.1-3.2-16.11-3.2c-5.2,0-9.99,0.95-14.37,2.86c-4.39,1.9-8.2,4.56-11.43,7.97
	c-3.23,3.41-5.75,7.45-7.53,12.12c-1.79,4.68-2.68,9.78-2.68,15.33c0,5.66,0.81,10.85,2.42,15.59c1.62,4.74,4.01,8.8,7.19,12.21
	c3.17,3.41,7.1,6.06,11.78,7.97c4.68,1.9,10.01,2.86,16.02,2.86c3.46,0,6.75-0.26,9.87-0.78c3.12-0.52,6-1.36,8.66-2.51V82.43
	h-23.38v-23.9h50.57v64.94C603.99,126.59,596.98,129.13,588.95,131.1z M721.62,87.46c0,7.04-1.27,13.42-3.81,19.14
	c-2.54,5.71-6,10.56-10.39,14.55c-4.39,3.98-9.47,7.07-15.24,9.27c-5.77,2.19-11.95,3.29-18.53,3.29c-6.47,0-12.61-1.1-18.44-3.29
	c-5.83-2.19-10.91-5.28-15.24-9.27c-4.33-3.98-7.77-8.83-10.3-14.55c-2.54-5.71-3.81-12.09-3.81-19.14c0-7.04,1.27-13.39,3.81-19.05
	c2.54-5.66,5.97-10.45,10.3-14.37c4.33-3.92,9.41-6.93,15.24-9.01c5.83-2.08,11.98-3.12,18.44-3.12c6.58,0,12.76,1.04,18.53,3.12
	c5.77,2.08,10.85,5.08,15.24,9.01c4.39,3.93,7.85,8.72,10.39,14.37C720.35,74.06,721.62,80.41,721.62,87.46z M694.26,87.46
	c0-2.77-0.46-5.48-1.39-8.14c-0.92-2.65-2.25-4.99-3.98-7.01c-1.73-2.02-3.87-3.66-6.41-4.94c-2.54-1.27-5.48-1.91-8.83-1.91
	c-3.35,0-6.29,0.64-8.83,1.91c-2.54,1.27-4.65,2.92-6.32,4.94c-1.68,2.02-2.94,4.36-3.81,7.01c-0.87,2.66-1.3,5.37-1.3,8.14
	s0.43,5.48,1.3,8.14c0.87,2.66,2.17,5.05,3.9,7.19c1.73,2.14,3.87,3.84,6.41,5.11c2.54,1.27,5.48,1.9,8.83,1.9
	c3.35,0,6.29-0.63,8.83-1.9c2.54-1.27,4.68-2.97,6.41-5.11c1.73-2.13,3.03-4.53,3.9-7.19C693.83,92.94,694.26,90.23,694.26,87.46z"
	/>
</svg>
